<svg width="20" height="20" viewBox="0 0 20 20" fill="none" xmlns="http://www.w3.org/2000/svg">
<mask id="mask0_69_246" style="mask-type:alpha" maskUnits="userSpaceOnUse" x="0" y="0" width="20" height="20">
<rect width="20" height="20" fill="#D9D9D9"/>
</mask>
<g mask="url(#mask0_69_246)">
<path d="M5.24333 16.1699V9.76946H6.33958C6.53722 9.76946 6.73965 9.78543 6.94687 9.81737C7.15409 9.84946 7.34958 9.90022 7.53333 9.96967L12.0735 11.5882C12.4335 11.7239 12.7353 11.9338 12.979 12.218C13.2226 12.5023 13.3444 12.841 13.3444 13.234C13.3444 13.3035 13.3176 13.362 13.2642 13.4097C13.2108 13.4572 13.1371 13.4809 13.0431 13.4809H11.7402C11.4806 13.4809 11.2192 13.4673 10.9558 13.4401C10.6924 13.4129 10.4335 13.3554 10.1792 13.2678L9.03666 12.8847L8.71937 13.7261L9.73541 14.0803C10.0612 14.1871 10.3879 14.2645 10.7154 14.3126C11.0428 14.3606 11.379 14.3847 11.7242 14.3847H16.4565C16.7994 14.3847 17.0729 14.5166 17.2771 14.7805C17.4811 15.0444 17.5831 15.3537 17.5831 15.7084L11.5127 17.9199L5.24333 16.1699ZM1.57666 17.5834V9.76946H4.15999V17.5834H1.57666ZM13.1217 10.2228L11.3235 8.6155C10.0501 7.43925 9.28777 6.58029 9.03666 6.03862C8.78555 5.49696 8.65999 5.04605 8.65999 4.68591C8.65999 4.03855 8.87986 3.49855 9.31958 3.06591C9.75916 2.63314 10.3165 2.41675 10.9917 2.41675C11.4137 2.41675 11.8048 2.52175 12.1648 2.73175C12.5249 2.94161 12.8439 3.20737 13.1217 3.52904C13.3855 3.19348 13.701 2.92425 14.0679 2.72133C14.4349 2.51828 14.8294 2.41675 15.2515 2.41675C15.8988 2.41675 16.4492 2.64355 16.9027 3.09716C17.3563 3.55064 17.5831 4.10105 17.5831 4.74841C17.5831 5.10855 17.4632 5.55598 17.2233 6.09071C16.9835 6.62543 16.2268 7.46703 14.9533 8.6155L13.1217 10.2228Z" fill="#1C1B1F"/>
</g>
</svg>
