<svg width="20" height="20" viewBox="0 0 20 20" fill="none" xmlns="http://www.w3.org/2000/svg">
<mask id="mask0_79_487" style="mask-type:alpha" maskUnits="userSpaceOnUse" x="0" y="0" width="20" height="20">
<rect width="20" height="20" fill="#D9D9D9"/>
</mask>
<g mask="url(#mask0_79_487)">
<path d="M2 18.2467V15.08H18V18.2467H2ZM4.41667 12.1746V9.71792L12.7998 1.32521C12.9205 1.20451 13.0459 1.12014 13.176 1.07208C13.3063 1.02403 13.4404 1 13.5783 1C13.7217 1 13.8569 1.02403 13.984 1.07208C14.111 1.12014 14.2331 1.20146 14.35 1.31604L15.266 2.2275C15.3815 2.3482 15.4645 2.47208 15.5152 2.59917C15.5659 2.72639 15.5913 2.86326 15.5913 3.00979C15.5913 3.14382 15.5663 3.27736 15.5163 3.41042C15.4663 3.54361 15.3849 3.66653 15.2723 3.77917L6.875 12.1746H4.41667ZM13.4296 4.08813L14.5079 3.00958L13.5817 2.08333L12.5031 3.16167L13.4296 4.08813Z" fill="#1C1B1F"/>
</g>
</svg>
