<svg width="20" height="20" viewBox="0 0 20 20" fill="none" xmlns="http://www.w3.org/2000/svg">
<mask id="mask0_69_242" style="mask-type:alpha" maskUnits="userSpaceOnUse" x="0" y="0" width="20" height="20">
<rect width="20" height="20" fill="#D9D9D9"/>
</mask>
<g mask="url(#mask0_69_242)">
<path d="M5.88442 12.7436H11.3717V10.702L14.1153 12.7436V7.25654L11.3717 9.29821V7.25654H5.88442V12.7436ZM3.7563 15.5834C3.39088 15.5834 3.07623 15.4515 2.81234 15.1876C2.54845 14.9237 2.4165 14.609 2.4165 14.2436V5.75654C2.4165 5.39112 2.54845 5.07647 2.81234 4.81258C3.07623 4.54869 3.39088 4.41675 3.7563 4.41675H16.2434C16.6227 4.41675 16.9408 4.54869 17.1978 4.81258C17.4547 5.07647 17.5832 5.39112 17.5832 5.75654V14.2436C17.5832 14.609 17.4547 14.9237 17.1978 15.1876C16.9408 15.4515 16.6227 15.5834 16.2434 15.5834H3.7563Z" fill="#1C1B1F"/>
</g>
</svg>
