<svg width="20" height="20" viewBox="0 0 20 20" fill="none" xmlns="http://www.w3.org/2000/svg">
<mask id="mask0_69_238" style="mask-type:alpha" maskUnits="userSpaceOnUse" x="0" y="0" width="20" height="20">
<rect width="20" height="20" fill="#D9D9D9"/>
</mask>
<g mask="url(#mask0_69_238)">
<path d="M12.0961 17.5834V15.5899L16.3909 11.3157C16.4703 11.2396 16.5556 11.184 16.6467 11.1488C16.7378 11.1138 16.8282 11.0963 16.918 11.0963C17.0132 11.0963 17.107 11.1139 17.1992 11.149C17.2916 11.1843 17.3741 11.2372 17.4469 11.3078L18.3636 12.2532C18.4337 12.3327 18.4878 12.418 18.5259 12.5092C18.5641 12.6004 18.5832 12.6907 18.5832 12.7803C18.5832 12.8699 18.567 12.9609 18.5346 13.0534C18.5021 13.1459 18.4451 13.2312 18.3636 13.3092L14.0896 17.5834H12.0961ZM16.9021 13.7357L17.8396 12.7853L16.9021 11.8399L15.9646 12.7982L16.9021 13.7357ZM3.7563 15.5834C3.39088 15.5834 3.07623 15.4538 2.81234 15.1947C2.54845 14.9355 2.4165 14.6182 2.4165 14.2428V5.75071C2.4165 5.37529 2.54602 5.05911 2.80505 4.80216C3.06407 4.54522 3.38116 4.41675 3.7563 4.41675H7.8315L9.83151 6.41675H16.2434C16.6185 6.41675 16.9356 6.54626 17.1946 6.80529C17.4537 7.06432 17.5832 7.3814 17.5832 7.75654V9.55133C17.3844 9.4755 17.178 9.43036 16.9638 9.41591C16.7496 9.40147 16.5389 9.42897 16.3315 9.49841C16.1466 9.55397 15.9629 9.63196 15.7803 9.73237C15.5976 9.83279 15.4283 9.953 15.2723 10.093L10.4357 14.8928V15.5834H3.7563Z" fill="#1C1B1F"/>
</g>
</svg>
