<svg width="20" height="20" viewBox="0 0 20 20" fill="none" xmlns="http://www.w3.org/2000/svg">
<mask id="mask0_69_304" style="mask-type:alpha" maskUnits="userSpaceOnUse" x="0" y="0" width="20" height="20">
<rect width="20" height="20" fill="#D9D9D9"/>
</mask>
<g mask="url(#mask0_69_304)">
<path d="M4.4165 15.4038V14.3207H5.2563V8.93591C5.2563 7.75966 5.6265 6.73057 6.36692 5.84862C7.1072 4.96668 8.05428 4.43328 9.20817 4.24841V3.20841C9.20817 2.98855 9.28505 2.80161 9.4388 2.64758C9.59255 2.49369 9.77921 2.41675 9.9988 2.41675C10.2185 2.41675 10.4055 2.49369 10.5598 2.64758C10.7143 2.80161 10.7915 2.98855 10.7915 3.20841V4.24841C11.9454 4.43328 12.8925 4.96668 13.6328 5.84862C14.3732 6.73057 14.7434 7.75966 14.7434 8.93591V14.3207H15.5832V15.4038H4.4165ZM9.994 17.7436C9.624 17.7436 9.30921 17.6124 9.04963 17.3501C8.78991 17.0877 8.66005 16.7723 8.66005 16.4038H11.3396C11.3396 16.7779 11.2078 17.0947 10.9442 17.3542C10.6807 17.6138 10.364 17.7436 9.994 17.7436Z" fill="#1C1B1F"/>
<circle cx="14" cy="6" r="2" fill="#3A37F0"/>
</g>
</svg>
